<svg xmlns="http://www.w3.org/2000/svg" width="30" height="30" viewBox="0 0 30 30">
    <path fill="#FFFFFF" fill-rule="evenodd" d="M8 8V7a5 5 0 0 1 10 0v1h3.446a2 2 0 0 1 1.991 1.818l.42 4.597a1 1 0 0 1-1.992.182L21.445 10H18v2a1 1 0 0 1-2 0v-2h-6v2a1 1 0 0 1-2 0v-2H4.554a165320.029 165320.029 0 0 0-1.457 16H15a1 1 0 0 1 0 2H2.548a1.5 1.5 0 0 1-1.5-1.5c.008-.15.008-.15.027-.353l.071-.78.283-3.113L2.563 9.818A2 2 0 0 1 4.554 8H8zm2 0h6V7a3 3 0 0 0-6 0v1zm18.002 9.76a3.854 3.854 0 0 1-.13 5.535l-4.643 4.616a1 1 0 0 1-1.41 0l-4.646-4.613c-.041-.044-.085-.086-.127-.13a3.854 3.854 0 0 1 0-5.408c1.477-1.494 4.527-1.099 5.478 1.202.96-2.298 4-2.696 5.478-1.202z"/>
</svg>
