<svg width="18" height="18" viewBox="0 0 18 18" fill="none" xmlns="http://www.w3.org/2000/svg">
<path d="M7.77884 0.0490827C4.50395 0.544958 1.83472 2.65782 0.64936 5.69345C-0.254804 8.00897 -0.133672 10.6565 0.973821 12.8987L1.23339 13.4205L0.606098 15.7015C0.264333 16.9563 -0.01254 17.9912 0.000438401 17.9998C0.00909069 18.0084 1.069 17.7411 2.35819 17.4047L4.70296 16.7924L5.17883 17.0167C7.65339 18.1723 10.5 18.1593 12.9356 16.9779C14.0734 16.4259 15.0987 15.6196 15.9336 14.6235C17.3959 12.8815 18.1486 10.5401 17.9756 8.28494C17.729 5.07252 15.8428 2.27837 12.9789 0.885603C12.1656 0.488902 11.4863 0.268992 10.5346 0.0878904C10.0198 -0.00697353 8.31961 -0.0328448 7.77884 0.0490827ZM10.3269 1.57552C11.0278 1.69625 11.7027 1.92479 12.3948 2.27406C13.1692 2.66645 13.6927 3.0459 14.2983 3.64957C15.687 5.03371 16.4138 6.70676 16.4917 8.67301C16.5523 10.3072 16.0894 11.8552 15.1203 13.2351C14.705 13.8301 13.8268 14.6839 13.2168 15.0849C11.9406 15.9344 10.7379 16.3181 9.23675 16.3569C7.7053 16.4001 6.57618 16.1112 5.10096 15.2876L4.92359 15.1884L3.55653 15.5463C2.8081 15.7446 2.17216 15.8999 2.15053 15.8912C2.1289 15.8826 2.27599 15.2833 2.47499 14.5588C2.66967 13.8344 2.83406 13.2178 2.83406 13.1833C2.83406 13.1488 2.76052 13.0065 2.66534 12.8599C1.48863 11.0015 1.21608 8.59109 1.9472 6.49547C2.68265 4.39985 4.28765 2.74837 6.3815 1.94203C6.97418 1.7135 7.57551 1.57983 8.45805 1.47634C8.78251 1.43753 9.84674 1.49359 10.3269 1.57552Z" fill="white"/>
<path d="M5.62438 4.82219C5.30857 4.90843 4.82837 5.48192 4.60341 6.04248C4.51256 6.27101 4.50391 6.37019 4.50391 6.90487C4.50391 7.49561 4.50823 7.51717 4.65965 7.93543C5.10524 9.12553 6.455 10.7813 7.79177 11.7817C8.50559 12.3164 9.1372 12.6312 10.2187 12.9934C11.1662 13.3081 11.7891 13.2995 12.4813 12.9589C12.9788 12.7131 13.3379 12.3552 13.4504 11.993C13.5585 11.6523 13.5931 11.1349 13.5153 11.04C13.3941 10.8934 11.5512 10.031 11.3608 10.031C11.2138 10.031 11.2224 10.0224 10.7898 10.5657C10.3875 11.0659 10.2577 11.1953 10.1409 11.1953C9.96782 11.1953 9.21075 10.8244 8.7565 10.5269C8.52722 10.3717 8.1768 10.0957 7.98212 9.91462C7.41107 9.37994 6.7708 8.50461 6.7708 8.25883C6.7708 8.18553 6.85733 8.05185 7.0347 7.84919C7.31157 7.53442 7.50625 7.20671 7.50625 7.05579C7.50625 6.96955 6.89194 5.4388 6.72754 5.11541C6.68428 5.03348 6.61506 4.9343 6.5718 4.8955C6.46797 4.80494 5.86232 4.75751 5.62438 4.82219Z" fill="white"/>
</svg>
